<svg width="30" height="32" viewBox="0 0 30 32" fill="none" xmlns="http://www.w3.org/2000/svg">
<path d="M29.8694 5.10669C28.9873 3.58244 27.7196 2.30406 26.2035 1.40981C24.6399 0.4875 22.8491 0 21.0246 0C19.2002 0 17.4092 0.4875 15.8457 1.40981C14.3296 2.30412 13.0619 3.5825 12.1798 5.10669C11.9997 5.41788 12.0134 5.8045 12.2151 6.10213L16.247 12.0536C16.2704 12.0519 16.2937 12.05 16.3176 12.05H19.2217L18.6289 10.2714C18.4652 9.78025 18.7307 9.24931 19.2219 9.08556C19.7131 8.92194 20.244 9.18738 20.4077 9.6785L21.0246 11.5292L21.6415 9.6785C21.8052 9.18731 22.3361 8.92181 22.8274 9.08556C23.3186 9.24931 23.584 9.78019 23.4203 10.2714L22.8275 12.05H25.7317C25.7556 12.05 25.7789 12.0518 25.8023 12.0536L29.8342 6.10213C30.0357 5.8045 30.0494 5.41788 29.8694 5.10669Z" fill="#388FF3"/>
<path d="M17.0747 30.0584C17.0747 31.129 17.9457 32 19.0163 32H23.0331C24.1037 32 24.9747 31.129 24.9747 30.0584V13.925H17.0747V30.0584Z" fill="#388FF3"/>
<path d="M1.0083 11.9167H9.91249V21.0876H1.0083V11.9167Z" fill="#388FF3"/>
<path d="M0.00390625 30.0583C0.00390625 31.1289 0.874906 31.9999 1.94553 31.9999H8.97478C10.0454 31.9999 10.9164 31.1289 10.9164 30.0583V22.9624H0.00390625V30.0583Z" fill="#388FF3"/>
<path d="M8.90808 1.94159C8.90808 1.00921 8.24277 0.306152 7.36058 0.306152C7.13752 0.306152 6.91189 0.351152 6.69008 0.439965L3.53389 1.7024C2.66639 2.0494 2.01221 3.01565 2.01221 3.94997V10.0417H8.90808V1.94159Z" fill="#388FF3"/>
</svg>
