<svg width="32" height="32" viewBox="0 0 32 32" fill="none" xmlns="http://www.w3.org/2000/svg">
<path d="M16.5708 12.857C16.5708 13.646 17.2104 14.2856 17.9994 14.2856C18.7883 14.2856 19.4279 13.646 19.4279 12.857C19.4279 12.068 18.7884 11.4285 17.9994 11.4285C17.2107 11.4293 16.5717 12.0684 16.5708 12.857Z" fill="#388FF3"/>
<path d="M19.9995 10.8572C20.0003 11.4881 20.5115 11.9994 21.1424 12.0001C21.7736 12.0001 22.2853 11.4884 22.2853 10.8572C22.2853 10.226 21.7736 9.71436 21.1424 9.71436C20.5112 9.71436 19.9995 10.226 19.9995 10.8572Z" fill="#388FF3"/>
<path d="M7.99656 6.88625C8.09193 6.86943 8.18843 6.85968 8.28518 6.85706C9.30975 6.86037 10.1654 7.639 10.2651 8.65868C10.4576 8.60343 10.6565 8.57406 10.8566 8.57131C11.9625 8.57362 12.908 9.36737 13.1018 10.4561C13.3883 10.3456 13.6924 10.2878 13.9995 10.2856C14.7801 10.2883 15.5166 10.6474 15.9995 11.2607C16.6806 10.3804 17.8597 10.0531 18.8972 10.4561C19.091 9.36737 20.0365 8.57362 21.1424 8.57131C21.3426 8.57406 21.5414 8.60343 21.7339 8.65868C21.8336 7.63893 22.6892 6.86037 23.7138 6.85706C23.8106 6.85968 23.9071 6.86943 24.0024 6.88625C24.0023 6.87631 23.9995 6.86706 23.9995 6.85706C24.0014 6.5735 24.0746 6.29493 24.2123 6.04706C23.5047 5.29443 22.8749 4.4725 22.3321 3.59368L22.3086 3.55881V3.55912C22.0009 3.06468 21.7641 2.62306 21.5863 2.26318C21.2693 2.47843 20.925 2.6505 20.5626 2.77493C20.5234 2.79412 20.4821 2.80856 20.4394 2.818C18.9996 3.2485 17.502 3.45443 15.9994 3.42856C14.497 3.45443 12.9996 3.24856 11.5598 2.81818C11.5165 2.80868 11.4746 2.794 11.4347 2.77443C11.0729 2.65012 10.7291 2.47825 10.4126 2.26325C10.2348 2.62312 9.99793 3.06475 9.69025 3.55918V3.55893L9.66681 3.59381C9.12406 4.47268 8.49412 5.29462 7.78662 6.04718C7.92425 6.29512 7.99737 6.57362 7.99937 6.85718C7.9995 6.86706 7.99668 6.87631 7.99656 6.88625Z" fill="#388FF3"/>
<path d="M25.714 7.42852C26.0296 7.42852 26.2855 7.17271 26.2855 6.85708C26.2851 6.54164 26.0295 6.28596 25.714 6.28564C25.3985 6.28564 25.1426 6.54146 25.1426 6.85708C25.1426 7.17271 25.3985 7.42852 25.714 7.42852Z" fill="#388FF3"/>
<path d="M22.8569 8.85713C22.8574 9.33031 23.2409 9.71375 23.7141 9.71425C24.1874 9.71425 24.5712 9.3305 24.5712 8.85713C24.5712 8.38375 24.1874 8 23.7141 8C23.2407 8 22.8569 8.38375 22.8569 8.85713Z" fill="#388FF3"/>
<path d="M15.9995 2.28569C19.312 2.28569 21.0252 1.46619 21.1407 1.14281C21.0251 0.8195 19.312 0 15.9995 0C12.6568 0 10.9431 0.834312 10.8555 1.1515C10.9431 1.45144 12.6568 2.28569 15.9995 2.28569Z" fill="#388FF3"/>
<path d="M9.71387 10.8572C9.71387 11.4884 10.2256 12.0001 10.8567 12.0001C11.4879 12.0001 11.9996 11.4884 11.9996 10.8572C11.9996 10.226 11.4879 9.71436 10.8567 9.71436C10.2259 9.71511 9.71462 10.2264 9.71387 10.8572Z" fill="#388FF3"/>
<path d="M14.4689 26.9467C15.4607 27.2908 16.5396 27.2907 17.5314 26.9462C27.8963 23.3078 29.4661 11.9437 29.6821 9.5614C28.6577 9.23565 27.6816 8.77409 26.7799 8.18896C26.4789 8.43478 26.1026 8.56978 25.7139 8.5714C25.7039 8.5714 25.6946 8.56859 25.6847 8.56846C25.7015 8.66384 25.7112 8.76034 25.7139 8.85715C25.7126 9.96115 24.8179 10.8558 23.7139 10.8572C23.6171 10.8545 23.5206 10.8448 23.4252 10.828C23.4254 10.838 23.4282 10.8472 23.4282 10.8572C23.4269 12.119 22.4043 13.1415 21.1425 13.1428C20.9423 13.1401 20.7434 13.1107 20.551 13.0555C20.4773 14.1078 19.7634 15.0063 18.755 15.3161C17.7466 15.6258 16.6514 15.283 15.9997 14.4534C15.3479 15.283 14.2528 15.6258 13.2444 15.3161C12.2359 15.0063 11.5221 14.1078 11.4484 13.0555C11.2559 13.1107 11.057 13.1401 10.8569 13.1428C9.59506 13.1415 8.5725 12.1189 8.57118 10.8572C8.57118 10.8472 8.574 10.838 8.57412 10.828C8.47875 10.8448 8.38225 10.8545 8.2855 10.8572C7.1815 10.8558 6.28681 9.96115 6.2855 8.85715C6.28812 8.76034 6.29787 8.66384 6.31462 8.56846C6.30475 8.56865 6.2955 8.5714 6.2855 8.5714C5.89687 8.56972 5.52056 8.43471 5.2195 8.18896C4.31793 8.77403 3.34206 9.23559 2.31787 9.56134C2.53643 11.9445 4.11787 23.313 14.4689 26.9467Z" fill="#388FF3"/>
<path d="M20.3555 30.7024C20.4395 31.0059 20.2624 31.3201 19.9593 31.4053C19.6562 31.4904 19.3413 31.3144 19.255 31.0116C18.9259 29.8351 18.9657 28.5859 19.369 27.4326C18.8992 27.6442 18.4175 27.8461 17.9085 28.0247C16.6724 28.4539 15.3278 28.4541 14.0916 28.0253C13.5822 27.8466 13.1001 27.6446 12.63 27.4327C13.0333 28.586 13.073 29.8351 12.744 31.0117C12.6894 31.2089 12.5334 31.3619 12.3351 31.4127C12.1369 31.4635 11.9265 31.4044 11.7837 31.2578C11.6409 31.1112 11.5875 30.8994 11.6435 30.7026C11.7159 30.4437 11.7663 30.1793 11.7939 29.912C9.06492 30.1763 7.88029 30.6232 7.51904 30.8599C8.16354 31.2988 11.0251 31.9999 15.9995 31.9999C20.9739 31.9999 23.8354 31.2988 24.48 30.8598C24.1187 30.6231 22.9338 30.1761 20.204 29.9118C20.2322 30.1791 20.2829 30.4436 20.3555 30.7024Z" fill="#388FF3"/>
<path d="M8.28535 9.71425C8.75872 9.71425 9.14247 9.3305 9.14247 8.85712C9.14247 8.38375 8.75872 8 8.28535 8C7.81216 8.0005 7.42872 8.384 7.42822 8.85712C7.42822 9.33044 7.81197 9.71425 8.28535 9.71425Z" fill="#388FF3"/>
<path d="M12.5708 12.857C12.5708 13.646 13.2104 14.2856 13.9994 14.2856C14.7883 14.2856 15.4279 13.646 15.4279 12.857C15.4279 12.068 14.7884 11.4285 13.9994 11.4285C13.2107 11.4293 12.5717 12.0684 12.5708 12.857Z" fill="#388FF3"/>
<path d="M6.2853 7.42852C6.60087 7.42852 6.85674 7.17271 6.85674 6.85708C6.85674 6.54146 6.60093 6.28564 6.2853 6.28564C5.96987 6.28596 5.71418 6.54164 5.71387 6.85708C5.71387 7.17271 5.96974 7.42852 6.2853 7.42852Z" fill="#388FF3"/>
</svg>
