<svg width="30" height="32" viewBox="0 0 30 32" fill="none" xmlns="http://www.w3.org/2000/svg">
<g id="Layer_x0020_1">
<path id="Vector" fill-rule="evenodd" clip-rule="evenodd" d="M27.5577 23.4789H5.93639C5.81583 23.4789 5.70276 23.4207 5.63226 23.3232L0.941182 16.8194C0.0550534 15.5909 0.964057 13.8875 2.43894 13.8875C3.03482 13.8875 3.59694 14.174 3.94307 14.6538L7.63833 19.7767H27.5575C28.578 19.7767 29.4081 20.6069 29.4081 21.6275C29.4081 22.648 28.5784 23.4791 27.5578 23.4791L27.5577 23.4789Z" fill="#388FF3"/>
<path id="Vector_2" fill-rule="evenodd" clip-rule="evenodd" d="M26.1799 25.52H7.48584C7.27884 25.52 7.11084 25.3518 7.11084 25.145V23.1033C7.11084 22.8963 7.27884 22.7283 7.48584 22.7283H26.1799C26.3869 22.7283 26.5549 22.8965 26.5549 23.1033V25.145C26.5549 25.3518 26.3869 25.52 26.1799 25.52Z" fill="#388FF3"/>
<path id="Vector_3" fill-rule="evenodd" clip-rule="evenodd" d="M8.74726 32C7.84388 32 7.35394 31.105 7.75538 29.7247L9.11814 25.0401C9.25351 24.5746 9.95083 24.7686 9.8447 25.2246H11.1308L11.1844 25.0403C11.3222 24.5661 12.0426 24.776 11.9046 25.25L11.572 26.3931H22.0939C21.8815 25.6626 21.5082 24.9333 22.0165 24.7851C22.3759 24.6803 22.4731 25.0118 22.5314 25.2123H23.8178C23.7276 24.7651 24.4129 24.5787 24.547 25.0401L25.9098 29.7247C26.7256 32.5293 23.9024 32.6124 23.3348 30.6607L22.7764 28.7422H10.8883L10.3303 30.6607C10.1138 31.4043 9.46633 32.0002 8.74708 32.0002L8.74726 32Z" fill="#388FF3"/>
<path id="Vector_4" fill-rule="evenodd" clip-rule="evenodd" d="M7.38697 12.8709C6.96622 12.8709 6.96829 12.3189 6.85953 11.7768C6.57978 10.3829 6.6051 9.02879 6.88185 7.76504C9.17686 7.10597 10.7286 7.32498 11.5579 7.35048C11.6087 9.22117 11.8936 10.4707 12.2509 12.2787C11.5161 12.1584 10.0791 11.8439 7.61029 12.8131L7.38697 12.8709ZM7.10479 6.93029C8.04604 3.95821 10.4082 1.58989 13.4299 0.559386C12.2826 1.62852 11.6097 3.83334 11.5549 6.50447C10.1843 6.29672 8.32092 6.62447 7.10479 6.93047V6.93029ZM16.0806 0.0266964C19.3433 -0.200742 22.3585 1.07745 24.3524 3.41277C23.0573 3.60065 21.2047 4.01465 20.0615 4.70578C19.282 2.91702 17.7044 0.631011 16.0808 0.0265089L16.0806 0.0266964ZM24.8857 4.0979C25.6552 5.18447 26.2105 6.4471 26.4894 7.83591C26.6165 8.46854 26.8852 9.06686 26.1965 9.08148C23.4185 9.14092 22.2672 10.0565 21.6535 10.427C21.3014 8.67198 20.9423 7.01279 20.3748 5.48503C21.1321 5.15372 22.5608 4.35928 24.8857 4.09809V4.0979ZM20.909 10.5286C18.1608 10.145 15.3663 10.7099 12.9882 12.1415C12.6237 10.2972 12.3392 9.06517 12.3126 7.1431C12.9081 6.6961 15.5123 4.97747 19.6154 5.59116C20.2004 7.11235 20.5572 8.77567 20.909 10.5286ZM12.3242 6.22022C12.4437 3.24702 13.3527 0.9327 14.7979 0.642824C16.5983 0.281322 18.4608 3.00665 19.2788 4.79015C15.7891 4.38778 13.3979 5.53716 12.3242 6.22022Z" fill="#388FF3"/>
<path id="Vector_5" fill-rule="evenodd" clip-rule="evenodd" d="M19.772 20.5271C19.2778 20.5271 18.5008 20.5271 17.7322 20.5271C17.5573 20.5271 17.4009 20.4039 17.3651 20.2258L15.4364 10.6186C15.3789 10.3317 18.0995 9.91209 18.1327 10.0778L20.1403 20.0782C20.1868 20.3098 20.0079 20.5271 19.772 20.5271Z" fill="#388FF3"/>
</g>
</svg>
