<?xml version="1.0" standalone="no"?>
<!DOCTYPE svg PUBLIC "-//W3C//DTD SVG 1.1//EN" "http://www.w3.org/Graphics/SVG/1.1/DTD/svg11.dtd" >
<svg xmlns="http://www.w3.org/2000/svg">
<metadata>Generated by IcoMoon</metadata>
<defs>
<font id="icomoon" horiz-adv-x="1024">
<font-face units-per-em="1024" ascent="960" descent="-64" />
<missing-glyph horiz-adv-x="1024" />
<glyph unicode="&#x20;" horiz-adv-x="512" d="" />
<glyph unicode="&#xe900;" glyph-name="icon-1" d="M842.368 190.080l-163.456 40.874-9.43 37.76c112.768 18.986 170.794 52.778 173.354 54.272 6.058 3.542 9.814 9.984 10.326 16.982 0.47 6.998-2.646 13.866-8.15 18.262-0.765 0.595-77.011 63.571-77.011 281.77 0 184.022-43.050 277.334-128 277.334h-12.586c-30.637 29.61-53.632 42.666-115.414 42.666-80.17 0-256-80.598-256-320 0-218.198-76.246-281.174-76.8-281.6-5.674-4.266-8.874-11.050-8.534-18.134 0.384-7.126 4.224-13.526 10.326-17.194 2.56-1.536 60.032-35.498 173.482-54.442l-9.43-37.674-163.453-40.877c-106.924-26.752-181.59-122.41-181.59-232.746 0-11.776 9.558-21.334 21.334-21.334h981.335c11.776 0 21.334 9.642 21.334 21.418-0.003 110.253-74.669 205.91-181.635 232.662z" />
<glyph unicode="&#xe901;" glyph-name="icon-2" horiz-adv-x="960" d="M955.821 796.586c-28.227 48.776-68.794 89.684-117.309 118.3-50.035 29.514-107.341 45.114-165.725 45.114-58.381 0-115.693-15.6-165.725-45.114-48.515-28.618-89.082-69.526-117.309-118.3-5.763-9.958-5.325-22.33 1.13-31.854l129.021-190.447c0.749 0.054 1.494 0.115 2.259 0.115h92.931l-18.97 56.915c-5.238 15.717 3.258 32.707 18.976 37.947 15.718 5.236 32.707-3.258 37.946-18.974l19.741-59.222 19.741 59.222c5.238 15.718 22.227 24.214 37.949 18.974 15.718-5.24 24.211-22.228 18.973-37.947l-18.97-56.915h92.934c0.765 0 1.51-0.058 2.259-0.115l129.021 190.447c6.448 9.524 6.886 21.896 1.126 31.854zM546.39-1.869c0-34.259 27.872-62.131 62.131-62.131h128.538c34.259 0 62.131 27.872 62.131 62.131v516.269h-252.8v-516.269zM32.266 578.666h284.934v-293.469h-284.934v293.469zM0.125-1.866c0-34.259 27.872-62.131 62.132-62.131h224.936c34.26 0 62.132 27.872 62.132 62.131v227.069h-349.2v-227.069zM285.059 897.869c0 29.836-21.29 52.334-49.52 52.334-7.138 0-14.358-1.44-21.456-4.282l-100.998-40.398c-27.76-11.104-48.694-42.024-48.694-71.922v-194.935h220.668v259.204z" />
<glyph unicode="&#xe902;" glyph-name="icon-3" horiz-adv-x="576" d="M576.112 929.266c0 16.974-13.76 30.734-30.736 30.734h-514.767c-16.974 0-30.734-13.76-30.734-30.734v-310.223h576.237v310.223zM134.892 709.23c0-16.568-13.432-30-30-30s-30 13.432-30 30v76.628c0 16.568 13.432 30 30 30s30-13.432 30-30v-76.628zM-0.125 34.682c0-16.976 13.76-30.733 30.734-30.733h21.688v-37.949c0-16.566 13.432-29.997 30-29.997s30 13.43 30 29.997v37.949h347.806v-37.949c0-16.566 13.434-29.997 30-29.997 16.57 0 30 13.43 30 29.997v37.949h25.274c16.976 0 30.736 13.757 30.736 30.733v524.365h-576.237v-524.365zM74.892 467.837c0 16.57 13.432 30 30 30s30-13.43 30-30v-76.63c0-16.57-13.432-30-30-30s-30 13.43-30 30v76.63z" />
<glyph unicode="&#xe903;" glyph-name="icon-4" d="M842.368 190.080l-163.456 40.874-13.91 55.638c43.734 43.306 73.686 102.784 82.56 163.798 24.234 6.826 43.008 27.606 46.25 53.674l10.666 85.334c2.262 18.006-3.286 36.224-15.232 49.878-6.998 8.021-15.827 14.079-25.6 17.791l3.926 80.342 15.958 16c24.022 25.558 43.946 69.376 2.304 132.95-32 48.85-86.355 73.64-161.619 73.64-29.696 0-98.048 0-161.706-42.752-181.763-3.798-206.509-88.234-206.509-170.582 0-19.158 4.65-62.294 7.722-88.32-10.966-3.456-20.906-9.856-28.672-18.688-12.16-13.782-17.792-32.086-15.53-50.304l10.666-85.334c3.498-27.818 24.618-49.706 51.328-54.912 8.832-58.666 37.248-116.224 78.464-158.806l-14.848-59.434-163.456-40.874c-107.008-26.666-181.674-122.323-181.674-232.659 0-11.776 9.558-21.334 21.334-21.334h981.335c11.776 0 21.334 9.642 21.334 21.418-0.003 110.253-74.669 205.91-181.635 232.662z" />
<glyph unicode="&#xe904;" glyph-name="icon-5" d="M511.709 825.016c-223.201 195.221-506.997 23.694-511.651-208.838-1.186-59.263 15.921-116.988 49.972-170.204h220.711l39.257 65.43c11.4 18.995 38.984 19.606 51.029 0.669l82.829-130.157 120.736 254.884c10.531 22.24 41.91 22.946 53.523 1.38l103.494-192.206h251.779c186.509 291.497-182.096 623.573-461.68 379.042zM677.283 401.757l-83.866 155.75-118.595-250.362c-10.090-21.299-39.763-23.149-52.416-3.264l-85.933 135.037-23.026-38.371c-5.422-9.037-15.185-14.563-25.722-14.563h-190.241c5.964-6.243-25.82 25.478 393.066-391.238 11.699-11.642 30.611-11.645 42.314 0 412.438 410.304 387.114 385.008 393.066 391.238h-222.237c-11.037-0.003-21.178 6.058-26.41 15.773z" />
<glyph unicode="&#xe905;" glyph-name="icon-6" d="M67.616 321.798c-25.136-0.013-49.326 9.584-67.616 26.826v-90.051c0-10.685 4.244-20.928 11.798-28.483s17.8-11.798 28.484-11.798h509.427v103.507h-482.093zM549.702 187.002h-151.478v-68.739c0-21.882 0-73.123-107.169-73.123h-32.4c-2.070 0.026-4.124-0.365-6.043-1.139s-3.665-1.926-5.137-3.379c-1.472-1.456-2.641-3.19-3.438-5.101s-1.208-3.958-1.208-6.029c0-2.070 0.411-4.118 1.208-6.029s1.966-3.645 3.438-5.101c1.472-1.456 3.218-2.605 5.137-3.379 1.919-0.778 3.973-1.165 6.043-1.139h292.433c-0.915 5.325-1.379 10.717-1.386 16.122v157.037zM645.302 820.196h315.098c14.192 0.015 28.205-3.15 41.014-9.262l0.112 78.36c0.010 5.295-1.027 10.541-3.050 15.436-2.019 4.895-4.986 9.343-8.726 13.090-3.744 3.747-8.186 6.72-13.078 8.748s-10.134 3.072-15.43 3.072h-920.924c-5.291 0-10.53-1.042-15.418-3.068s-9.33-4.993-13.071-8.735c-3.741-3.742-6.708-8.184-8.732-13.073s-3.065-10.128-3.064-15.419v-468.665c0-8.874 1.748-17.664 5.144-25.862 3.396-8.202 8.375-15.651 14.651-21.93 6.276-6.275 13.727-11.254 21.927-14.65 8.2-3.398 16.989-5.146 25.865-5.146h482.092v371.502c0.026 25.346 10.106 49.646 28.029 67.568 17.92 17.923 42.221 28.004 67.565 28.032zM960.4 788.203h-315.098c-16.867 0-33.043-6.701-44.973-18.628-11.926-11.927-18.627-28.104-18.627-44.972v-694.642c0-16.867 6.701-33.043 18.627-44.97 11.93-11.93 28.106-18.63 44.973-18.63h315.098c16.87 0 33.046 6.701 44.973 18.63 11.926 11.926 18.627 28.102 18.627 44.97v694.642c0 16.868-6.701 33.044-18.627 44.972s-28.102 18.628-44.973 18.628zM822.682 6.234h-39.651c-4.243 0-8.314 1.686-11.315 4.688s-4.685 7.069-4.685 11.312c0 4.246 1.683 8.314 4.685 11.315s7.072 4.685 11.315 4.685h39.651c4.243 0 8.314-1.683 11.312-4.685 3.002-3.002 4.688-7.069 4.688-11.315 0-4.243-1.686-8.31-4.688-11.312-2.998-3.002-7.069-4.688-11.312-4.688zM884.512 709.191h-163.312c-4.243 0-8.314 1.686-11.312 4.686-3.002 3.001-4.688 7.070-4.688 11.314s1.686 8.313 4.688 11.314c2.998 3 7.069 4.686 11.312 4.686h163.318c4.243 0 8.31-1.686 11.312-4.686s4.688-7.070 4.688-11.314c0-4.244-1.686-8.313-4.688-11.314s-7.069-4.686-11.312-4.686h-0.006z" />
<glyph unicode="&#xe906;" glyph-name="icon-7" d="M1015.994 549.376c-7.229 106.335-52.080 205.319-128.166 281.405-83.328 83.328-194.115 129.219-311.968 129.219-16.883 0-30.563-13.687-30.563-30.57v-380.054h470.698zM195.82 549.376v23.046c0 68.421-55.664 124.085-124.086 124.085h-31.164c-16.883 0-30.57-13.688-30.57-30.57s13.687-30.562 30.57-30.562h31.164c34.711 0 62.953-28.243 62.953-62.954v-23.046h61.133zM850.595 327.29c49.037 0 94.467-15.696 131.568-42.304 26.486 42.365 38.986 89.718 34.883 134.912v68.346h-882.374v-69.789c0-41.728 9.75-81.213 27.062-116.32 31.055 16.061 66.281 25.155 103.594 25.155 106.33 0 195.741-73.75 219.821-172.781h145.626c24.077 99.030 113.491 172.781 219.821 172.781zM265.328 266.147c-91.023 0-165.078-74.045-165.078-165.069s74.055-165.078 165.078-165.078c91.024 0 165.078 74.054 165.078 165.078s-74.054 165.069-165.078 165.069zM265.328 2.077c-54.586 0-99 44.406-99 99.002 0 54.586 44.414 98.992 99 98.992s99.002-44.406 99.002-98.992c0-54.595-44.416-99.002-99.002-99.002zM265.336 138.938c-20.883 0-37.867-16.986-37.867-37.859 0-20.883 16.984-37.869 37.867-37.869s37.867 16.986 37.867 37.869c0 20.874-16.992 37.859-37.867 37.859zM1015.686 101.078c0 91.024-74.054 165.069-165.078 165.069-91.021 0-165.075-74.045-165.075-165.069s74.054-165.078 165.075-165.078c91.024 0 165.078 74.054 165.078 165.078zM850.608 2.077c-54.586 0-98.998 44.406-98.998 99.002 0 54.586 44.413 98.992 98.998 98.992 54.589 0 99.002-44.406 99.002-98.992 0-54.595-44.413-99.002-99.002-99.002zM850.602 138.938c-20.883 0-37.869-16.986-37.869-37.859 0-20.883 16.986-37.869 37.869-37.869s37.866 16.986 37.866 37.869c0 20.874-16.982 37.859-37.866 37.859z" />
<glyph unicode="&#xe907;" glyph-name="icon-8" d="M530.266 548.576c0-25.248 20.467-45.715 45.715-45.715 25.245 0 45.712 20.467 45.712 45.715s-20.464 45.712-45.712 45.712c-25.238-0.026-45.686-20.477-45.715-45.712zM639.984 612.57c0.026-20.189 16.384-36.55 36.573-36.573 20.198 0 36.573 16.374 36.573 36.573s-16.374 36.571-36.573 36.571c-20.198 0-36.573-16.372-36.573-36.571zM255.89 739.64c3.052 0.538 6.14 0.85 9.236 0.934 32.786-0.106 60.167-25.022 63.357-57.652 6.16 1.768 12.525 2.708 18.928 2.796 35.389-0.074 65.645-25.474 71.846-60.313 9.168 3.536 18.899 5.386 28.726 5.456 24.979-0.086 48.547-11.578 64-31.203 21.795 28.17 59.526 38.643 92.726 25.747 6.202 34.839 36.458 60.239 71.846 60.313 6.406-0.088 12.768-1.028 18.928-2.796 3.19 32.632 30.57 57.546 63.357 57.652 3.098-0.084 6.186-0.396 9.235-0.934-0.003 0.318-0.093 0.614-0.093 0.934 0.061 9.074 2.403 17.988 6.81 25.92-22.643 24.084-42.797 50.386-60.166 78.508l-0.752 1.116v-0.010c-9.846 15.822-17.424 29.954-23.114 41.47-10.144-6.888-21.162-12.394-32.758-16.376-1.254-0.614-2.576-1.076-3.942-1.378-46.074-13.776-93.997-20.366-142.080-19.538-48.077-0.828-95.994 5.76-142.067 19.532-1.386 0.304-2.726 0.774-4.003 1.4-11.578 3.978-22.579 9.478-32.707 16.358-5.69-11.516-13.269-25.648-23.115-41.47v0.008l-0.75-1.116c-17.368-28.124-37.526-54.426-60.166-78.508 4.404-7.934 6.744-16.846 6.808-25.92 0.004-0.316-0.086-0.612-0.090-0.93zM822.848 722.287c10.099 0 18.288 8.186 18.288 18.286-0.013 10.094-8.192 18.276-18.288 18.286-10.096 0-18.285-8.186-18.285-18.286s8.189-18.286 18.285-18.286zM731.421 676.572c0.016-15.142 12.288-27.412 27.43-27.428 15.146 0 27.427 12.28 27.427 27.428s-12.282 27.428-27.427 27.428c-15.149 0-27.43-12.28-27.43-27.428zM511.984 886.858c106 0 160.822 26.224 164.518 36.572-3.699 10.346-58.518 36.57-164.518 36.57-106.966 0-161.805-26.698-164.608-36.848 2.803-9.598 57.642-36.294 164.608-36.294zM310.844 612.57c0-20.198 16.375-36.573 36.571-36.573 20.198 0 36.573 16.374 36.573 36.573s-16.374 36.571-36.573 36.571c-20.186-0.024-36.547-16.385-36.571-36.571zM463.005 97.706c31.738-11.011 66.262-11.008 98 0.016 331.677 116.429 381.91 480.080 388.822 556.314-32.781 10.424-64.016 25.194-92.87 43.918-9.632-7.866-21.674-12.186-34.112-12.238-0.32 0-0.618 0.090-0.934 0.094 0.538-3.052 0.848-6.14 0.934-9.238-0.042-35.328-28.672-63.957-64-64.002-3.098 0.086-6.186 0.397-9.238 0.934 0.006-0.32 0.096-0.614 0.096-0.934-0.042-40.378-32.765-73.098-73.142-73.139-6.406 0.086-12.771 1.027-18.928 2.794-2.358-33.674-25.203-62.426-57.472-72.339-32.269-9.91-67.315 1.059-88.17 27.606-20.858-26.547-55.901-37.517-88.17-27.606-32.272 9.914-55.114 38.666-57.472 72.339-6.16-1.766-12.525-2.707-18.928-2.794-40.379 0.042-73.101 32.765-73.143 73.139 0 0.32 0.090 0.614 0.094 0.934-3.052-0.538-6.14-0.848-9.236-0.934-35.328 0.045-63.958 28.674-64 64.002 0.084 3.098 0.396 6.186 0.932 9.238-0.316-0.006-0.612-0.094-0.932-0.094-12.436 0.054-24.478 4.374-34.112 12.238-28.85-18.722-60.078-33.492-92.852-43.916 6.994-76.261 57.6-440.053 388.833-556.332zM651.376-22.477c2.688-9.712-2.979-19.766-12.678-22.493-9.699-2.723-19.776 2.909-22.538 12.598-10.531 37.648-9.258 77.622 3.648 114.528-15.034-6.771-30.448-13.232-46.736-18.947-39.555-13.734-82.582-13.741-122.141-0.019-16.301 5.718-31.728 12.182-46.771 18.963 12.906-36.906 14.176-76.877 3.648-114.528-1.747-6.31-6.739-11.206-13.085-12.832-6.342-1.626-13.075 0.266-17.645 4.957s-6.278 11.469-4.486 17.766c2.317 8.285 3.93 16.746 4.813 25.299-87.327-8.458-125.236-22.758-136.796-30.333 20.624-14.045 112.194-36.48 271.375-36.48s250.749 22.435 271.376 36.483c-11.562 7.574-49.478 21.878-136.832 30.336 0.902-8.554 2.525-17.018 4.848-25.299zM265.131 649.144c15.148 0 27.428 12.28 27.428 27.428s-12.28 27.428-27.428 27.428c-15.142-0.016-27.412-12.288-27.428-27.428 0-15.146 12.28-27.428 27.428-27.428zM402.266 548.576c0-25.248 20.467-45.715 45.715-45.715 25.245 0 45.712 20.467 45.712 45.715s-20.464 45.712-45.712 45.712c-25.238-0.026-45.686-20.477-45.715-45.712zM201.13 722.287c10.098 0 18.286 8.186 18.286 18.286s-8.186 18.286-18.286 18.286c-10.094-0.010-18.276-8.192-18.286-18.286 0-10.1 8.188-18.286 18.286-18.286z" />
<glyph unicode="&#xe908;" glyph-name="icon-9" d="M550.509 883.203h-118.448c-14.141 0-25.6-11.459-25.6-25.6v-38.615h-78.643c-14.14 0-25.599-11.459-25.599-25.6s11.459-25.6 25.599-25.6h326.925c14.141 0 25.6 11.459 25.6 25.6s-11.459 25.6-25.6 25.6h-78.643v38.615c0.010 14.141-11.45 25.6-25.59 25.6zM524.909 818.988h-67.235v13.015h67.235v-13.015zM242.595 731.988c-4.219-8.97-2.888-19.558 3.41-27.208l66.417-80.518 33.473-304.374c-0.141-0.214-41.133-83.926-41.194-84.070-1.229-2.621-2.007-5.642-2.365-8.448l-17.725-186.56c-0.676-7.181 1.7-14.307 6.554-19.642s11.735-8.378 18.944-8.378h362.383c7.21 0 14.090 3.043 18.944 8.378s7.229 12.461 6.554 19.642l-17.744 186.573c-0.33 2.816-1.178 5.907-2.368 8.448 0 0-41.101 83.69-41.203 84.080l9.011 82.483 43.786 21.584c35.062 17.296 60.048 50.618 66.816 89.139l26.47 150.591c3.626 20.644-2.019 41.667-15.494 57.713-13.466 16.046-33.219 25.252-54.17 25.252h-447.334c-9.912 0-18.934-5.724-23.163-14.684zM677.702 695.472h35.389c7.917 0 12.771-4.372 14.96-6.973 2.182-2.601 5.654-8.131 4.282-15.933l-26.47-150.578c-3.962-22.509-18.566-41.984-39.046-52.093l-14.55-7.178 25.437 232.755zM626.195 695.472l-11.325-103.67c-3.942 2.099-7.702 4.794-12.157 8.029-13.178 9.584-31.21 22.701-64.019 22.701-32.8 0-50.842-13.117-64.010-22.701-11.059-8.038-17.738-12.902-33.894-12.902-16.128 0-22.806 4.864-33.866 12.902-9.962 7.251-22.742 16.506-42.576 20.592l-1.875 17.030c-0.554 4.945-2.528 9.635-5.702 13.485l-36.733 44.534h306.157z" />
<glyph unicode="&#xe909;" glyph-name="icon-10" d="M913.005 411.446h-13.398c-59.59 0-117.754 19.277-165.498 54.55l-74.528-74.528-42.448 42.448 70.304 70.304-35.088 29.203-77.533-77.533-42.448 42.448 73.648 73.648-35.091 29.203-80.874-80.877-42.448 42.448 76.992 76.992-68.179 56.745c-8.586 7.146-19.462 11.080-30.634 11.080-26.403 0-47.885-21.48-47.885-47.884v-26.068c0-85.952-69.928-155.882-155.88-155.882-60.33 0-115.786 35.331-141.28 90.013l-7.338 15.734c-6.298 13.51-19.996 22.24-34.9 22.24-21.228 0-38.5-17.274-38.5-38.506v-256.662h1024c-5.373 56.518-53.094 100.883-110.995 100.883zM11.578 250.538c18.25-36.771 56.182-62.118 99.942-62.118h801.488c43.76 0 81.693 25.347 99.942 62.118h-1001.372z" />
<glyph unicode="&#xe90a;" glyph-name="icon-11" d="M228.437 959.758l-228.437-228.437 164.867-164.866 76.563 76.569 42.414-42.415-76.563-76.56 42.156-42.166 228.438 228.439-249.438 249.437zM244.883 714.891c-6.547-6.547-15.25-10.156-24.5-10.156s-17.945 3.602-24.492 10.14c-13.508 13.516-13.508 35.492 0 48.992 6.547 6.547 15.242 10.148 24.492 10.148s17.953-3.602 24.492-10.141c13.508-13.508 13.508-35.476 0.008-48.984zM545.658 185.664l42.544-42.547 76.758 76.758 42.416-42.413-76.758-76.758 42.147-42.15 76.758 76.758 42.413-42.413-76.755-76.758 80.141-80.141 228.435 228.438-249.654 249.664-228.445-228.438zM1023.898 960l-321.459-124.687 196.781-196.775 124.678 321.462zM76.062 223.702l-48.562-48.554c-17.516-17.523-27.172-40.819-27.172-65.603 0-24.781 9.656-48.070 27.172-65.6l80.336-80.336c17.524-17.523 40.82-27.171 65.602-27.171s48.078 9.648 65.602 27.171l48.555 48.554-211.531 211.539zM737.203 715.719l-84.563 84.57-534.171-534.171 84.57-84.563 534.164 534.164zM761.376 485.952l102.797 102.797-84.563 84.564-534.172-534.173 84.563-84.56 431.376 431.373z" />
<glyph unicode="&#xe90b;" glyph-name="icon-12" horiz-adv-x="960" d="M881.846 208.675h-691.882c-3.858 0-7.476 1.862-9.732 4.982l-150.114 208.122c-28.356 39.312 0.732 93.821 47.928 93.821 19.068 0 37.056-9.168 48.132-24.522l118.248-163.933h637.413c32.656 0 59.219-26.566 59.219-59.226 0-32.656-26.55-59.251-59.21-59.251l-0.003 0.006zM837.757 143.36h-598.21c-6.624 0-12 5.382-12 12v65.334c0 6.624 5.376 12 12 12h598.21c6.624 0 12-5.382 12-12v-65.334c0-6.618-5.376-12-12-12zM279.912-64c-28.908 0-44.586 28.64-31.74 72.81l43.608 149.907c4.332 14.896 26.646 8.688 23.25-5.904h41.155l1.715 5.898c4.41 15.174 27.462 8.458 23.046-6.71l-10.643-36.579h336.701c-6.797 23.376-18.742 46.714-2.477 51.456 11.501 3.354 14.611-7.254 16.477-13.67h41.165c-2.886 14.31 19.043 20.275 23.334 5.51l43.61-149.907c26.106-89.747-64.237-92.406-82.4-29.952l-17.869 61.392h-380.419l-17.856-61.392c-6.928-23.795-27.647-42.864-50.663-42.864l0.006 0.006zM236.383 548.131c-13.464 0-13.398 17.664-16.878 35.011-8.952 44.605-8.142 87.936 0.714 128.376 73.44 21.090 123.096 14.082 149.634 13.266 1.626-59.862 10.742-99.847 22.176-157.703-23.514 3.85-69.498 13.914-148.5-17.101l-7.146-1.85zM227.353 738.231c30.12 95.107 105.709 170.893 202.404 203.869-36.714-34.212-58.246-104.767-60-190.243-43.859 6.648-103.487-3.84-142.404-13.632v0.006zM514.579 959.146c104.406 7.278 200.893-33.624 264.698-108.354-41.443-6.012-100.726-19.26-137.309-41.376-24.944 57.24-75.427 130.393-127.382 149.737l-0.006-0.006zM796.342 828.867c24.624-34.77 42.394-75.174 51.318-119.616 4.067-20.244 12.666-39.39-9.373-39.858-88.896-1.902-125.738-31.201-145.376-43.057-11.267 56.161-22.758 109.255-40.918 158.143 24.234 10.602 69.952 36.024 144.349 44.382v0.006zM669.088 623.085c-87.942 12.275-177.366-5.802-253.466-51.613-11.664 59.018-20.768 98.443-21.619 159.949 19.056 14.304 102.39 69.3 233.69 49.662 18.72-48.678 30.138-101.904 41.395-157.998zM394.374 760.953c3.824 95.142 32.912 169.201 79.158 178.477 57.613 11.568 117.213-75.642 143.389-132.714-111.67 12.876-188.189-23.904-222.547-45.762zM632.704 303.133c-15.814 0-40.678 0-65.274 0-5.597 0-10.602 3.942-11.747 9.642l-61.718 307.43c-1.84 9.181 85.219 22.608 86.282 17.306l64.243-320.013c1.488-7.411-4.237-14.365-11.786-14.365z" />
<glyph unicode="&#xe90c;" glyph-name="icon-13" d="M416 416h160.128v128h-334.784l48.512 108.608c5.088 11.776 16.64 19.392 29.44 19.392h197.44c-6.176 32.352-6.272 62.976 0.128 96h-197.568c-51.264 0-97.44-30.464-117.632-77.568l-69.376-161.92c-40.416-21.536-68.288-63.616-68.288-112.512v-64c0-47.168 25.92-88 64-110.208v-113.792c0-35.296 28.704-64 64-64h96c35.296 0 64 28.704 64 64v96h224.128v128h-160.128c-17.664 0-32 14.336-32 32s14.336 32 32 32zM240 304c-44.192 0-80 35.808-80 80s35.808 80 80 80c44.192 0 80-35.808 80-80s-35.808-80-80-80zM957.498 752.738c-13.216 75.744-76.768 129.92-113.184 140.96-6.144 1.856-12.192-3.008-12.192-9.408v-160.544c0-12.128-6.848-23.2-17.696-28.608l-32-16c-9.024-4.512-19.616-4.512-28.608 0l-32 16c-10.848 5.408-17.696 16.512-17.696 28.608v160.544c0 6.432-6.080 11.296-12.256 9.408-36.448-11.296-99.968-66.304-113.088-141.408-11.264-64.512 12.928-127.775 51.104-165.983 6.272-6.272 10.208-14.368 10.208-23.232v-435.104c0-70.656 57.28-127.936 127.936-127.936s127.936 57.28 127.936 127.936l0.096 434.944c0 8.96 4.064 17.216 10.4 23.584 38.432 38.4 62.272 101.951 51.040 166.239zM768.282 80.003c-26.496 0-48 21.504-48 48s21.504 48 48 48c26.496 0 48-21.504 48-48s-21.504-48-48-48z" />
<glyph unicode="&#xe90d;" glyph-name="icon-14" d="M975.222 511.632c-5.99 9.981-65.094 35.51-65.094 35.51 10.282 5.309 17.306 6.406 17.306 28.365 0 23.952-0.118 31.936-16.086 31.936h-54.176c-0.218 0.48-0.458 0.979-0.678 1.478-34.97 76.371-39.661 95.673-91.821 121.663-69.962 34.792-201.126 36.548-252.547 36.548-51.418 0-182.582-1.756-252.486-36.548-52.218-25.949-50.92-39.303-91.82-121.663 0-0.221-0.419-0.797-0.798-1.478h-54.234c-15.849 0-15.969-7.984-15.969-31.936 0-21.958 7.026-23.056 17.306-28.365 0 0-57.108-27.526-65.093-35.51s-15.969-63.875-15.969-159.69c0-95.811 7.985-191.626 7.985-191.626h23.833c0-27.946 4.112-31.936 16.089-31.936h159.687c11.977 0 15.969 3.99 15.969 31.936h511.001c0-27.946 3.994-31.936 15.971-31.936h163.68c7.984 0 11.974 5.987 11.974 31.936h23.955c0 0 7.984 97.811 7.984 191.626 0 93.818-9.981 149.709-15.968 159.69zM251.156 421.926c-36.353-3.974-72.894-6.013-109.466-6.109-40.76 0-42.157-2.614-45.032 22.835-1.081 11.651-0.739 23.389 1.018 34.954l1.258 6.086h5.988c23.953 0 46.449-1.018 88.926-13.533 21.605-6.483 41.925-16.653 60.062-30.061 8.703-6.307 10.699-12.294 10.699-12.294l-13.454-1.878zM744.512 278.208l-8.822-22.077h-447.127c0 0 0.779 1.216-9.98 22.317-7.984 15.61 1.996 25.59 17.785 31.258 30.58 11.018 119.946 42.237 215.757 42.237 95.814 0 186.957-26.906 216.579-42.237 10.976-5.667 24.611-9.661 15.808-31.616v0.118zM231.514 550.736c-6.448-0.371-12.909-0.419-19.362-0.141 5.21 9.264 8.104 19.581 13.194 30.362 15.969 33.933 34.233 72.338 66.749 88.527 46.989 23.394 144.378 33.934 220.029 33.934 75.654 0 173.043-10.46 220.032-33.934 32.515-16.188 50.701-54.613 66.749-88.527 5.13-10.88 7.984-21.28 13.334-30.602-3.994-0.218-8.582 0-19.542 0.381h-561.183zM925.6 438.733c-4.272-24.909-0.282-22.915-43.037-22.915-36.573 0.096-73.11 2.134-109.466 6.109-5.69 1.018-7.306 10.621-2.755 14.173 18.045 13.558 38.394 23.741 60.061 30.061 42.477 12.515 66.39 14.192 90.006 13.354 1.587-0.058 3.094-0.707 4.234-1.808 1.136-1.107 1.827-2.595 1.933-4.179 1.13-11.619 0.8-23.334-0.976-34.874v0.080z" />
<glyph unicode="&#xe90e;" glyph-name="icon-15" d="M597.661 656.055c3.84 4.694 8.106 8.852 12.691 12.586-89.853 18.312-142.474-19.618-194.666-79.466 96.259-10.214 118.688-8.984 181.974 66.88zM852.477 417.869c-25.942 0-50.461-5.965-72.522-16.33l-31.472 49.933c59.402 30.714 105.072 17.693 161.171 20.794 20.16 0 37.866 11.306 46.397 29.546 8.534 18.241 5.76 39.147-7.146 54.507l-179.414 213.974c-16.32 19.414-42.771 25.066-64.854 15.254h-0.106l-70.931 33.494c-10.56 5.012-23.36 0.426-28.371-10.24-5.014-10.666-0.426-23.36 10.237-28.374l58.88-27.84c-6.582-17.108-3.149-39.254 10.774-54.932l56.534-64.214c3.52-3.946 3.414-9.92-0.214-13.758-3.414-3.626-8.851-4.268-13.014-1.494l-31.466 20.586c-21.44 14.080-50.026 9.812-66.56-10.026-77.76-93.226-117.12-93.546-229.546-80.746-42.883 5.014-77.546 20.16-103.038 45.12-42.24 41.386-92.906 67.094-146.452 74.238l-80.212 10.666c-30.606 4.214-58.134-19.754-58.134-50.88 0-18.666 10.132-35.842 26.454-44.906 41.708-23.146 182.186-101.225 235.094-135.040 12.528-7.994 23.048-17.123 32.192-26.906l-33.974-35.878c-28.432 20.928-63.416 33.45-101.366 33.45-94.51 0-171.418-76.909-171.418-171.52 0-94.506 76.908-171.414 171.414-171.414 94.612 0 171.52 76.909 171.52 171.414 0 41.306-14.669 79.229-39.059 108.861l28.252 29.837c27.251-50.909 27.021-110.237 22.858-148.192-4.269-37.968 25.67-70.934 63.574-70.934h139.2c28.48 0 53.869 19.2 61.651 46.614l35.094 124.266c10.237 36.288 31.117 67.501 58.547 90.845l30.742-48.771c-38.269-31.475-62.73-79.181-62.73-132.528 0-94.506 76.906-171.411 171.411-171.411 94.614 0 171.52 76.906 171.52 171.411 0.003 94.618-76.906 171.526-171.52 171.526zM257.584 246.387c0-47.491-38.634-86.128-86.126-86.128-47.5 0-86.136 38.634-86.136 86.128 0 47.488 38.634 86.125 86.136 86.125 15.184 0 29.44-3.984 41.842-10.909l-31.404-33.168c-3.36 0.838-6.822 1.411-10.436 1.411-23.97 0-43.47-19.494-43.47-43.459s19.5-43.456 43.47-43.456c23.958 0 43.458 19.491 43.458 43.456 0 4.432-0.862 8.624-2.1 12.656l31.426 33.187c8.402-13.296 13.34-28.989 13.34-45.843zM852.531 160.259c-47.491 0-86.128 38.634-86.128 86.128 0 22.886 9.034 43.661 23.648 59.104l24.368-38.659c-3.302-6.122-5.35-13.018-5.35-20.445 0-23.965 19.501-43.459 43.459-43.459s43.459 19.494 43.459 43.459c0 23.965-19.501 43.456-43.459 43.456-0.698 0-1.35-0.173-2.042-0.205l-24.384 38.685c8.333 2.698 17.206 4.189 26.426 4.189 47.491 0 86.125-38.634 86.125-86.125 0.003-47.491-38.634-86.128-86.122-86.128z" />
<glyph unicode="&#xe90f;" glyph-name="icon-16" d="M237.465 6.537c46.103 119.238 161.885 203.889 297.278 203.889 135.397 0 251.177-84.651 297.281-203.889 4.048-10.469 2.683-22.303-3.686-31.587-6.373-9.284-16.886-14.834-28.174-14.834h-530.841c-11.241 0-21.8 5.55-28.172 14.834-6.326 9.284-7.737 21.118-3.686 31.587zM545.314 168.878c-4.096-18.388-22.344-29.993-40.731-25.897s-29.993 22.347-25.897 40.735c0 0 31.13 140.264-0.044 285.218-20.026 92.979-65.901 188.46-165.888 246.76-16.247 9.512-21.754 30.402-12.288 46.694 9.512 16.247 30.402 21.755 46.694 12.288 118.467-69.131 174.534-181.179 198.202-291.362 34.359-159.788-0.048-314.436-0.048-314.436zM560.015 351.607c-3.731-18.476-21.753-30.447-40.185-26.716-18.476 3.734-30.447 21.709-26.716 40.189 0 0 14.292 79.507 117.784 177.357 13.698 12.923 35.318 12.332 48.241-1.365 12.971-13.701 12.336-35.318-1.318-48.244-83.514-78.961-97.806-141.22-97.806-141.22zM615.994 454.775c-3.321 8.919-14.79 42.643-15.701 81.739-1.181 50.606 14.746 108.588 78.189 141.083 113.367 57.981 252.996 17.203 314.392-53.521 7.509-8.646 10.192-20.388 7.144-31.403-3.004-11.015-11.288-19.753-22.118-23.392 0 0-55.887-20.343-94.027-96.621-18.842-37.639-66.946-78.053-118.054-92.023-28.218-7.69-57.027-7.554-82.787 2.823-8.827 3.55-17.428 8.329-25.484 14.473 12.24 15.336 27.307 31.949 45.783 49.377 13.653 12.926 14.292 34.543 1.321 48.244-12.926 13.698-34.543 14.288-48.244 1.365-15.38-14.52-28.761-28.628-40.414-42.144zM387.932 521.315c-17.565-7.875-34.495-11.561-50.517-12.244-49.198-2.048-92.797 25.214-127.113 63.536-32.814 36.68-57.071 82.693-70.588 111.866-29.673 63.852-108.226 150.869-108.226 150.869-7.327 8.147-10.285 19.297-7.964 29.992s9.603 19.661 19.615 24.075c133.393 58.527 295.367 73.956 421.933-27.398 58.846-47.149 66.628-107.133 54.023-162.475-16.701-73.364-72.499-137.033-72.499-137.033-0.41-0.457-0.864-0.911-1.273-1.365-32.133 74.273-84.289 142.859-166.436 190.782-16.293 9.466-37.182 3.959-46.694-12.288-9.466-16.293-3.959-37.182 12.288-46.694 72.955-42.553 117.147-104.902 143.45-171.623z" />
<glyph unicode="&#xe910;" glyph-name="icon-17" horiz-adv-x="960" d="M306.875 883.031c-8.043-3.255-15.318-7.851-21.828-13.594 4.788-38.869 24.126-74.675 53.804-98.418 1.914-1.532 4.595-2.489 7.085-2.489 6.32 0 11.488 5.17 11.296 11.679 0 3.447-1.533 6.51-4.022 8.617-27.571 22.211-44.611 57.059-46.334 94.205zM411.030 684.664h143.222v-26.807h-143.222v26.807zM391.501 947.75h38.486v-24.509h-38.486v24.509zM92.418 840.712h147.051c13.594 42.316 52.655 70.845 97.078 71.036h31.974v48.252h-219.427c-43.656 0-79.079-35.422-79.079-79.079v-40.21h22.403zM570.154 707.639v93.439h-174.621v-93.439h174.621zM849.123 325.078c-4.976 4.787-27.379 13.978-66.63 13.978s-61.654-9.194-66.634-13.978c4.979-4.787 27.382-13.978 66.634-13.978s61.654 9.19 66.63 13.978zM368.154 93.008h224.787v226.512c0 1.149 0 2.298 0.192 3.446-15.126 21.83-38.486 52.656-74.099 96.502-43.85 53.613-88.077 104.163-100.717 118.525-51.696-2.682-92.48-45.19-92.864-97.078 1.533-11.488 15.891-127.52 15.891-168.496 0-33.315-14.166-126.563-15.891-137.478 0.384-23.36 19.338-41.933 42.701-41.933zM102.383 817.734l-22.211-171.752h151.264l-22.211 171.752h-18.764v-142.84c0-6.319-5.17-11.488-11.488-11.488s-11.488 5.17-11.488 11.488v142.84h-26.999v-142.84c0-6.319-5.17-11.488-11.488-11.488s-11.488 5.17-11.488 11.488v142.84h-15.128zM660.71 358.579c-20.102-8.045-34.464-17.808-40.973-27.574-0.384-0.573-0.768-1.149-0.96-1.722-0.192 0-0.192 0-0.192-0.192-0.189-0.576-0.573-0.957-0.765-1.533h-0.192l-0.573-1.725h-0.192l-0.576-1.914v-0.384c-0.189-0.381-0.189-0.957-0.189-1.338 0-0.192-0.192-0.384-0.192-0.576v-1.725c0.192-4.211 1.53-8.042 3.83-11.485 6.509-9.766 20.87-19.533 40.973-27.574 7.661-2.874 15.51-5.552 23.36-7.661 7.277-1.914 14.746-3.827 22.787-5.168 24.893-4.787 50.166-7.085 75.632-6.896 33.315 0 65.101 3.638 92.288 10.531l66.445 31.786c1.53 1.53 2.87 3.254 4.019 4.976 5.171 6.896 5.171 16.086 0 22.979-6.509 9.763-20.87 19.53-40.976 27.571-32.358 12.829-75.632 19.722-121.776 19.722-22.403 0-44.806-1.722-67.018-5.168-8.234-1.341-16.083-3.066-23.552-4.787-10.72-2.678-21.059-5.933-31.21-10.144zM782.49 362.026c44.806 0 90.182-11.296 90.182-36.954s-45.379-36.957-90.182-36.957c-44.806 0-90.182 11.488-90.182 36.957 0 25.466 45.376 36.954 90.182 36.954zM782.486 237.763c-25.274 0-50.739 2.106-75.632 6.32-8.042 1.338-15.891 3.062-23.168 4.976-28.72 7.277-52.080 17.616-67.779 30.253v-243.744c0-12.637 15.126-26.426 40.976-37.338l3.827-1.533c9.194-3.638 18.765-6.701 28.339-8.998 24.701-6.128 49.974-9.766 75.44-10.531v233.978c0 4.406 2.49 8.426 6.512 10.339l35.232 16.851c-7.853-0.381-15.702-0.573-23.747-0.573zM787.469 203.872v-267.872l42.509 20.298 119.094 57.059v265.955c-15.699-12.637-38.867-22.976-67.206-30.253l-94.397-45.187zM643.667 427.126c3.066 0.576 5.363 3.258 5.552 6.32 1.341 13.402 2.109 26.614 2.109 39.635 0 32.934-5.555 63.76-25.658 86.544-20.106 22.787-50.931 33.891-94.973 35.040-1.914 0.192-3.83-0.573-5.168-1.914-0.96-0.957-1.725-2.106-2.109-3.446 4.214-8.618 25.85-40.784 57.443-83.293s55.146-71.802 62.803-78.886zM233.539 63.139c0.192 1.341 22.211 144.563 22.211 191.472 0 57.827-22.020 233.792-22.211 235.706-0.191 0.384-0.191 0.957-0.191 1.341 0 25.085 5.745 49.782 16.658 72.186l-14.552 59.165h-158.923l-18.764-97.078-46.529-456.662c-1.915-17.616 3.83-35.232 15.701-48.253 11.871-13.21 28.722-20.678 46.337-20.678h184.771c-15.892 16.275-24.701 38.294-24.701 61.082 0.002 0.573 0.002 1.149 0.193 1.722zM592.938 35.562v34.467h-224.79c-36.189 0.192-65.484 29.485-65.675 65.674 0 0.576 0 1.152 0.191 1.725 0.191 0.957 15.7 102.054 15.7 134.989 0 40.784-15.7 165.050-15.7 166.39-0.191 0.384-0.191 0.957-0.191 1.341 0.191 66.634 54.187 120.627 120.82 120.819 3.254 0 6.509-1.341 8.618-3.83 0.573-0.573 53.037-59.738 104.928-123.117 29.869-36.573 51.312-64.528 66.826-86.163 15.891 19.722 48.25 35.613 90.755 44.803 5.171 49.21 10.723 92.864 11.488 99.76-0.573 78.694-64.144 142.074-142.838 142.454h-163.709c-52.080 0-99.95-28.336-125.034-73.907-6.702-12.061-11.679-25.085-14.551-38.486-2.298-9.955-3.447-19.914-3.447-30.061 1.915-14.17 22.403-179.792 22.403-237.811 0-47.101-20.296-180.56-22.403-194.154 0.383-22.019 11.871-42.506 30.444-54.186 8.426-5.363 17.807-8.618 27.573-9.763l7.278-0.384h293.338c-14.173 11.68-22.022 25.082-22.022 39.44zM500.266 588.538c0.192 8.042 3.638 15.699 9.571 21.062 5.744 5.552 13.405 8.426 21.446 8.042 50.739-1.341 87.312-15.507 111.437-42.89 33.891-38.102 34.272-91.523 29.485-143.414-1.53-15.51-14.55-27.382-30.061-27.382h-2.87c-5.555 0.576-12.445 1.149-76.397 87.312-16.086 21.638-31.021 42.509-42.125 58.973-20.678 30.832-20.678 34.278-20.486 38.298z" />
<glyph unicode="&#xe911;" glyph-name="icon-18" d="M760.25 693.143h-32.582c-4.653 54.303-26.374 102.4-65.162 136.533-40.339 37.236-93.091 57.406-148.947 57.406h-3.101c-54.304 0-107.056-20.17-148.947-57.406-38.787-34.133-60.508-83.782-65.163-136.533h-32.582c4.654 63.612 31.030 121.018 76.023 161.358 46.547 41.891 107.056 65.164 170.669 65.164h3.101c63.613 0 124.122-23.273 170.669-65.164 44.992-40.34 71.37-97.746 76.022-161.358zM598.886 438.694h-173.77c-9.309 0-17.066-7.757-17.066-17.066v-94.643c0-9.309 7.757-17.066 17.066-17.066h172.218c9.309 0 17.069 7.757 17.069 17.066v94.643c0 9.309-7.76 17.066-15.517 17.066zM598.886 438.694h-173.77c-9.309 0-17.066-7.757-17.066-17.066v-94.643c0-9.309 7.757-17.066 17.066-17.066h172.218c9.309 0 17.069 7.757 17.069 17.066v94.643c0 9.309-7.76 17.066-15.517 17.066zM598.886 438.694h-173.77c-9.309 0-17.066-7.757-17.066-17.066v-94.643c0-9.309 7.757-17.066 17.066-17.066h172.218c9.309 0 17.069 7.757 17.069 17.066v94.643c0 9.309-7.76 17.066-15.517 17.066zM598.886 438.694h-173.77c-9.309 0-17.066-7.757-17.066-17.066v-94.643c0-9.309 7.757-17.066 17.066-17.066h172.218c9.309 0 17.069 7.757 17.069 17.066v94.643c0 9.309-7.76 17.066-15.517 17.066zM1005.386 147.011l-72.922 310.304c-6.208-13.965-13.965-27.93-23.274-40.339-32.582-41.891-82.23-65.165-134.982-65.165h-91.539c-9.309 0-17.066 7.757-17.066 17.066s7.757 17.069 17.066 17.069h91.539c43.443 0 82.23 18.618 108.605 52.749 26.378 34.134 35.686 76.026 26.378 117.917l-15.517 63.612c-6.205 23.273-26.374 40.34-51.2 40.34h-660.944c-24.824 0-44.994-17.067-51.2-40.34l-13.964-63.612c-9.309-41.891 0-85.334 26.376-117.917 26.376-34.131 66.715-52.749 108.606-52.749h91.539c9.309 0 17.069-7.76 17.069-17.069s-7.76-17.066-17.069-17.066h-91.539c-52.751 0-102.4 23.274-134.982 65.165-9.309 12.41-17.067 26.374-23.273 40.339l-72.921-310.304c-9.309-41.891 0-85.334 26.376-117.917 26.376-34.131 66.715-52.749 108.606-52.749h713.698c43.443 0 82.23 18.618 108.605 52.749 27.93 34.134 37.238 76.026 27.93 117.917zM648.534 326.986c0-27.926-21.722-49.648-49.648-49.648h-173.77c-27.926 0-49.648 21.722-49.648 49.648v94.643c0 27.926 21.722 49.648 49.648 49.648h172.218c27.93 0 49.651-21.722 49.651-49.648l1.549-94.643zM598.886 438.694h-173.77c-9.309 0-17.066-7.757-17.066-17.066v-94.643c0-9.309 7.757-17.066 17.066-17.066h172.218c9.309 0 17.069 7.757 17.069 17.066v94.643c0 9.309-7.76 17.066-15.517 17.066zM598.886 438.694h-173.77c-9.309 0-17.066-7.757-17.066-17.066v-94.643c0-9.309 7.757-17.066 17.066-17.066h172.218c9.309 0 17.069 7.757 17.069 17.066v94.643c0 9.309-7.76 17.066-15.517 17.066zM598.886 438.694h-173.77c-9.309 0-17.066-7.757-17.066-17.066v-94.643c0-9.309 7.757-17.066 17.066-17.066h172.218c9.309 0 17.069 7.757 17.069 17.066v94.643c0 9.309-7.76 17.066-15.517 17.066z" />
<glyph unicode="&#xe912;" glyph-name="icon-19" d="M913.005 411.446h-13.398c-59.59 0-117.754 19.277-165.498 54.55l-74.528-74.528-42.448 42.448 70.304 70.304-35.088 29.203-77.533-77.533-42.448 42.448 73.648 73.648-35.091 29.203-80.874-80.877-42.448 42.448 76.992 76.992-68.179 56.745c-8.586 7.146-19.462 11.080-30.634 11.080-26.403 0-47.885-21.48-47.885-47.884v-26.068c0-85.952-69.928-155.882-155.88-155.882-60.33 0-115.786 35.331-141.28 90.013l-7.338 15.734c-6.298 13.51-19.996 22.24-34.9 22.24-21.228 0-38.5-17.274-38.5-38.506v-256.662h1024c-5.373 56.518-53.094 100.883-110.995 100.883zM11.578 250.538c18.25-36.771 56.182-62.118 99.942-62.118h801.488c43.76 0 81.693 25.347 99.942 62.118h-1001.372z" />
<glyph unicode="&#xe913;" glyph-name="icon-20" d="M993.978-40.986c-29.312 22.461-61.024 41.61-94.557 57.088l-119.866 55.344c-5.93-16.899-21.43-54.714-52.064-92.736-12.944-16.070-27.069-30.31-42.24-42.71h338.755l-30.029 23.014zM296.516-21.29c-30.633 38.022-46.133 75.837-52.062 92.736l-119.867-55.344c-33.531-15.478-65.242-34.627-94.555-57.088l-30.031-23.014h338.758c-15.165 12.4-29.298 26.634-42.243 42.71zM707.296 124.006v6.829c-52.867-44.445-121.008-71.258-195.296-71.258s-142.429 26.813-195.289 71.258v-6.829c0-11.67-6.844-22.365-17.43-27.248 0 0 46.296-160.758 212.725-160.758 166.422 0 212.72 160.758 212.72 160.758-10.592 4.883-17.43 15.578-17.43 27.248zM512 119.61c134.547 0 244 109.501 244 244.102v108.061h-488v-108.061c0-134.602 109.462-244.102 244-244.102zM204.711 531.805h614.563c16.57 0 30 13.437 30 30.006 0 16.579-13.43 30.016-30 30.016h-25.203v31.034c0 96.733-48.906 182.233-123.274 233.1v-126.633c0-16.578-13.43-30.015-30-30.015-16.563 0-30 13.437-30 30.015v145.719c0 3.992 0.797 7.805 2.218 11.289-22.445 8.641-46.256 14.492-71.021 17.125v-210.945c0-16.578-13.44-30.016-30-30.016-16.573 0-30 13.438-30 30.016v210.945c-24.768-2.625-48.573-8.484-71.008-17.117 1.414-3.492 2.211-7.297 2.211-11.297v-145.719c0-16.578-13.43-30.015-30-30.015-16.573 0-30 13.437-30 30.015v126.649c-74.377-50.867-123.291-136.383-123.291-233.116v-31.034h-25.203c-16.563 0-30-13.437-30-30.016 0-16.57 13.437-30.006 30.008-30.006zM670.797 875.047c0 16.578-13.43 30.016-30 30.016-12.57 0-23.328-7.75-27.782-18.734 20.518-7.898 39.891-18.125 57.782-30.367v19.086zM383.203 905.062c-16.57 0-30-13.437-30-30.016v-19.070c17.891 12.242 37.264 22.469 57.782 30.367-4.461 10.969-15.213 18.719-27.782 18.719zM542 903.461v26.524c0 16.578-13.43 30.016-30 30.016s-30-13.438-30-30.016v-26.524c9.859 1.055 19.866 1.602 30 1.602s20.141-0.547 30-1.602z" />
<glyph unicode="&#xe914;" glyph-name="icon-21" d="M726.397 806.4h-76.8v76.8c-0.048 42.394-34.397 76.752-76.8 76.8h-153.6c-42.394-0.048-76.752-34.406-76.8-76.8v-76.8h-76.8c-70.658-0.074-127.92-57.336-127.996-127.996v-153.6c0.048-42.403 34.406-76.752 76.8-76.8h127.997v25.594c0 14.138 11.466 25.603 25.603 25.603s25.603-11.466 25.603-25.603v-25.594h204.797v25.594c0 14.138 11.466 25.603 25.603 25.603s25.594-11.466 25.594-25.603v-25.594h128.006c42.394 0.048 76.752 34.397 76.8 76.8v153.6c-0.074 70.658-57.338 127.92-128.006 127.996zM598.4 806.4h-204.797v76.8c0.019 14.129 11.466 25.584 25.594 25.603h153.6c14.134-0.019 25.584-11.474 25.603-25.603v-76.8zM931.203 345.6h-25.603v-281.597c-0.262-7.795-1.050-15.562-2.352-23.251 60.618 11.203 104.634 64.013 104.755 125.645v102.403c-0.048 42.394-34.406 76.752-76.8 76.8zM86.403 345.6h-25.603c-42.394-0.048-76.752-34.406-76.8-76.8v-102.403c0.113-61.632 44.136-114.442 104.748-125.645-1.297 7.69-2.080 15.459-2.345 23.251v281.597zM649.597 396.797v-76.8c0-14.134-11.456-25.594-25.594-25.594s-25.603 11.456-25.603 25.594v76.8h-204.797v-76.8c0-14.134-11.466-25.594-25.603-25.594s-25.603 11.456-25.603 25.594v76.8h-127.997c-27.785 0.096-54.77 9.318-76.8 26.253v-359.046c0.074-70.669 57.336-127.933 127.996-128.006h460.8c70.669 0.074 127.933 57.338 128.006 128.006v359.046c-22.032-16.931-49.014-26.157-76.8-26.253h-128.006z" />
</font>
</defs>
</svg>
