<svg xmlns="http://www.w3.org/2000/svg" width="20" height="20" viewBox="0 0 20 20"
                                fill="none">
                                <path
                                    d="M17.2197 15.6425C17.2197 15.6425 16.2541 16.5908 16.0175 16.8688C15.6321 17.2802 15.1779 17.4744 14.5825 17.4744C14.5253 17.4744 14.4642 17.4744 14.407 17.4706C13.2735 17.3982 12.2202 16.9564 11.4302 16.5794C9.27009 15.5358 7.37333 14.0543 5.79715 12.1766C4.49576 10.6113 3.62561 9.16401 3.04933 7.61009C2.69441 6.66175 2.56465 5.92288 2.6219 5.2259C2.66006 4.78029 2.8318 4.41085 3.14856 4.09474L4.44996 2.796C4.63696 2.6208 4.83542 2.52559 5.03005 2.52559C5.27049 2.52559 5.46513 2.67032 5.58725 2.79219C5.59107 2.796 5.59488 2.79981 5.5987 2.80362C5.8315 3.02071 6.05285 3.24542 6.28565 3.48536C6.40396 3.60724 6.52609 3.72911 6.64821 3.8548L7.6901 4.89455C8.09464 5.29826 8.09464 5.67151 7.6901 6.07522C7.57942 6.18567 7.47256 6.29612 7.36188 6.40276C7.0413 6.7303 7.29314 6.47898 6.96111 6.77605C6.95348 6.78367 6.94584 6.78748 6.94203 6.7951C6.61382 7.12264 6.67488 7.44256 6.74357 7.65965C6.74739 7.67108 6.75121 7.68251 6.75502 7.69393C7.02599 8.34901 7.40763 8.96601 7.98772 9.70107L7.99154 9.70488C9.04487 10.9998 10.1554 12.0091 11.3805 12.7822C11.537 12.8813 11.6973 12.9612 11.8499 13.0374C11.9873 13.106 12.1171 13.1707 12.2278 13.2393C12.243 13.2469 12.2583 13.2583 12.2736 13.2659C12.4033 13.3307 12.5254 13.3612 12.6514 13.3612C12.9681 13.3612 13.1666 13.1631 13.2315 13.0984L13.9795 12.3518C14.1093 12.2223 14.3154 12.0662 14.5558 12.0662C14.7924 12.0662 14.9871 12.2147 15.1054 12.3442C15.1092 12.348 15.1092 12.348 15.113 12.3518L17.2159 14.4504C17.609 14.8388 17.2197 15.6425 17.2197 15.6425Z"
                                    stroke="#B8BBBD" stroke-width="1.5" stroke-linecap="round"
                                    stroke-linejoin="round" />
                            </svg>