<svg xmlns="http://www.w3.org/2000/svg" width="28" height="28" viewBox="0 0 28 28" fill="none">
  <path d="M22.7112 2.79999C24.0857 2.79999 25.2 3.89904 25.2 5.25478L25.2 9.44524C25.2 10.801 24.0857 11.9 22.7112 11.9H18.9778C17.6033 11.9 16.4889 10.801 16.4889 9.44524L16.4889 5.25478C16.4889 3.89904 17.6032 2.79999 18.9778 2.79999L22.7112 2.79999Z" stroke="#B8BBBD" stroke-width="2.5" stroke-linecap="round" stroke-linejoin="round"/>
  <path d="M5.28894 2.79999C3.91436 2.79999 2.80005 3.89904 2.80005 5.25478L2.80006 9.44524C2.80006 10.801 3.91437 11.9 5.28895 11.9H9.02228C10.3969 11.9 11.5112 10.801 11.5112 9.44524L11.5112 5.25478C11.5112 3.89904 10.3968 2.79999 9.02227 2.79999L5.28894 2.79999Z" stroke="#B8BBBD" stroke-width="2.5" stroke-linecap="round" stroke-linejoin="round"/>
  <path d="M22.7112 16.1C24.0857 16.1 25.2 17.1991 25.2 18.5548V22.7452C25.2 24.101 24.0857 25.2 22.7112 25.2H18.9778C17.6033 25.2 16.4889 24.101 16.4889 22.7452L16.4889 18.5548C16.4889 17.1991 17.6033 16.1 18.9778 16.1H22.7112Z" stroke="#B8BBBD" stroke-width="2.5" stroke-linecap="round" stroke-linejoin="round"/>
  <path d="M5.28895 16.1C3.91437 16.1 2.80006 17.1991 2.80006 18.5548L2.80006 22.7452C2.80006 24.101 3.91438 25.2 5.28895 25.2H9.02228C10.3969 25.2 11.5112 24.101 11.5112 22.7452L11.5112 18.5548C11.5112 17.1991 10.3969 16.1 9.02228 16.1H5.28895Z" stroke="#B8BBBD" stroke-width="2.5" stroke-linecap="round" stroke-linejoin="round"/>
</svg>